<?xml version="1.0" standalone="no"?>
<!DOCTYPE svg PUBLIC "-//W3C//DTD SVG 20010904//EN"
 "http://www.w3.org/TR/2001/REC-SVG-20010904/DTD/svg10.dtd">
<svg version="1.0" xmlns="http://www.w3.org/2000/svg"
 width="644.000000pt" height="632.000000pt" viewBox="0 0 644.000000 632.000000"
 preserveAspectRatio="xMidYMid meet">

<g transform="translate(0.000000,632.000000) scale(0.100000,-0.100000)"
fill="#000000" stroke="none">
<path d="M2377 6305 c-229 -32 -309 -61 -410 -145 -140 -115 -202 -248 -215
-457 l-7 -107 -40 -7 c-182 -32 -245 -46 -345 -79 -139 -45 -222 -86 -313
-152 -91 -68 -150 -137 -197 -233 -59 -120 -74 -187 -75 -345 0 -121 2 -140
24 -188 50 -110 157 -173 322 -187 115 -10 233 -33 312 -62 84 -30 162 -73
150 -83 -10 -9 -1020 -400 -1033 -400 -5 0 -12 -10 -15 -22 -7 -32 -535 -3806
-535 -3825 0 -14 207 -15 2368 -11 l2367 5 852 584 c469 321 852 590 853 597
0 13 -1397 4402 -1403 4409 -3 2 -996 -382 -1960 -758 -286 -112 -310 -119
-330 -106 -43 29 -308 284 -393 377 -159 175 -254 318 -304 460 -34 96 -37
134 -14 210 29 100 151 191 313 236 54 15 69 15 199 1 156 -18 312 -48 417
-81 l70 -22 60 65 c33 35 88 85 122 111 l61 47 -66 36 c-101 54 -215 96 -321
118 -126 27 -377 34 -514 14z m-214 -1330 c164 -190 300 -351 303 -358 3 -10
-77 -46 -284 -126 l-289 -113 -70 69 c-81 81 -176 134 -285 157 -40 9 -171 27
-290 40 -247 27 -277 37 -292 98 -8 32 -5 46 22 100 40 81 163 221 255 291
171 130 325 184 537 185 l95 1 298 -344z m2113 -332 c-4 -65 -13 -332 -22
-594 l-17 -475 36 -90 c102 -257 147 -545 127 -813 -19 -256 -69 -449 -177
-686 l-51 -110 -12 -365 c-7 -201 -17 -480 -24 -620 l-12 -255 -22 50 c-12 28
-88 199 -169 381 l-146 331 -81 -65 c-229 -185 -504 -317 -791 -378 -159 -34
-373 -49 -515 -37 -106 9 -117 8 -136 -9 -20 -18 -21 -18 -43 6 -16 17 -46 30
-100 41 -352 78 -673 255 -933 516 l-108 108 -48 -82 c-26 -45 -153 -265 -281
-490 -129 -224 -235 -406 -236 -405 -2 2 50 355 115 786 l118 782 -24 74
c-182 576 -54 1245 331 1724 37 46 77 89 89 97 11 7 120 52 240 99 l220 86 25
-22 c23 -22 51 -52 90 -98 16 -20 17 -19 125 20 60 22 115 44 122 48 11 6 6
24 -25 88 l-38 80 279 109 c154 59 292 109 307 111 15 2 74 20 130 40 114 40
132 41 304 4 286 -62 586 -209 813 -400 l81 -68 229 299 c126 164 230 299 232
299 2 0 1 -53 -2 -117z m881 -924 c96 -13 81 19 114 -239 11 -91 22 -166 23
-167 1 -1 57 20 125 47 67 28 159 60 204 73 l81 24 102 -316 c110 -340 489
-1521 574 -1789 29 -90 48 -167 44 -171 -8 -8 -837 -576 -1257 -862 -92 -63
-222 -151 -288 -197 -67 -45 -124 -80 -127 -77 -3 3 2 159 12 348 33 661 136
2584 145 2722 6 77 16 249 22 383 l13 243 65 -6 c36 -3 103 -11 148 -16z"/>
</g>
</svg>
