<svg height='300px' width='300px'  fill="#000000" xmlns="http://www.w3.org/2000/svg" viewBox="0 0 58 67" x="0px" y="0px"><title>Asset 53</title><g data-name="Layer 2"><g data-name="Layer 1"><path d="M56.619,50.429H45.364c-.552-1.036-1.325-2.334-2.334-3.964l-.013-.014c-.056-.082-.1-.152-.138-.221.069-.3.124-.621.193-.98,1.381-8.3-3.839-13.451-5.234-13.7a2.766,2.766,0,0,0-2.4.718,3.281,3.281,0,0,0-.815,2.071,8.869,8.869,0,0,0-5.04,3.715,6.182,6.182,0,0,0-.773,3.77v.594l-6.256,3.19-1.146.746.635,1.035a7.884,7.884,0,0,0,2.941,2.845c-.1.055-.207.111-.317.166-.014.014-.042.014-.055.028H20.217a38.582,38.582,0,0,1,.194-4.571l.745-7.112-4.267,8.948-4.737-3.535,1.367,3.894a19.243,19.243,0,0,0,.981,2.376H1.381A1.384,1.384,0,0,0,0,51.81,15.2,15.2,0,0,0,15.19,67H42.81A15.2,15.2,0,0,0,58,51.81,1.384,1.384,0,0,0,56.619,50.429ZM31.265,43.234a14.351,14.351,0,0,0,.014-1.519v-.276a1.187,1.187,0,0,0,.138.3l.469.442.484.028a2.549,2.549,0,0,0,.469-.042,2.88,2.88,0,0,0,1.188-.731c.87-.857,1.077-1.837.524-2.514l-.469-.442-.483-.027a2.384,2.384,0,0,0-1.658.773,3.672,3.672,0,0,0-.511.649,3.262,3.262,0,0,1,.277-.594c.7-1.229,2.168-2.168,4.419-2.817l.621-.262.166-.594a4.7,4.7,0,0,0,.166-.981c.027-.221.055-.566.055-.607a.581.581,0,0,1,.069-.014,11.387,11.387,0,0,1,3.535,10.053,10.606,10.606,0,0,1-1.781-1.947,2.646,2.646,0,0,0-1.671-1.4,2.25,2.25,0,0,0-1.05.014,6.352,6.352,0,0,0-1.864.967,10.538,10.538,0,0,1-3.107,1.547Zm-2.914,2.2a4.531,4.531,0,0,0,3.4.262,12.9,12.9,0,0,0,3.963-1.92,8.515,8.515,0,0,1,.953-.58.84.84,0,0,1,.152.221,20.033,20.033,0,0,0,3.784,3.9c.069.11.166.276.318.511.635,1.035,1.146,1.891,1.56,2.61H28.42l1.243-1.492-1.851-.373-.442-.1a4.764,4.764,0,0,1-2.361-1.34ZM42.81,64.238H15.19A12.439,12.439,0,0,1,2.845,53.19h52.31A12.439,12.439,0,0,1,42.81,64.238Z"></path><path d="M4.867,19.114a3.87,3.87,0,0,0,1.416,2.293l6.008,4.673.872.872a3.87,3.87,0,0,0,5.464,0l1.812-1.81a3.87,3.87,0,0,0,0-5.465l-.872-.873L14.894,12.8A3.866,3.866,0,0,0,12.6,11.38l-1.115-.223A3.856,3.856,0,0,0,8,12.214l-2.3,2.3A3.857,3.857,0,0,0,4.645,18Zm14.48,4.934-1.813,1.81a2.317,2.317,0,0,1-3.277,0L13.9,25.5l2.547-2.547,2.542-2.542.359.36A2.32,2.32,0,0,1,19.347,24.048ZM6.794,15.6l2.3-2.3a2.312,2.312,0,0,1,1.639-.68,2.35,2.35,0,0,1,.456.045L12.3,12.9a2.321,2.321,0,0,1,1.375.85l4.285,5.508-2.612,2.611L12.74,24.472,7.232,20.187a2.321,2.321,0,0,1-.849-1.375L6.16,17.7A2.313,2.313,0,0,1,6.794,15.6Z"></path><path d="M22.437,16.134a3.87,3.87,0,0,0,5.464,0l.873-.873,5.962-4.638a3.841,3.841,0,0,0,1.438-2.414l.314-1.877a3.874,3.874,0,0,0-1.079-3.367L33.8,1.351A3.887,3.887,0,0,0,30.428.271L28.551.585a3.856,3.856,0,0,0-2.415,1.438L21.5,7.986l-.873.872a3.87,3.87,0,0,0,0,5.465ZM27.355,2.973a2.319,2.319,0,0,1,1.45-.864L30.682,1.8a2.307,2.307,0,0,1,2.019.647l1.614,1.615a2.321,2.321,0,0,1,.649,2.019l-.315,1.878A2.3,2.3,0,0,1,33.787,9.4l-5.462,4.25L23.107,8.435ZM21.72,9.952l.358-.359,5.089,5.089-.359.358a2.32,2.32,0,0,1-3.278,0l-1.81-1.811A2.317,2.317,0,0,1,21.72,9.952Z"></path><rect x="16.669" y="31.682" width="1.545" height="1.546"></rect><rect x="19.76" y="30.137" width="1.545" height="1.545"></rect><rect x="22.851" y="32.454" width="1.545" height="1.546"></rect><rect x="24.396" y="23.954" width="1.545" height="1.546"></rect><rect x="24.396" y="20.091" width="1.545" height="1.546"></rect><rect x="23.623" y="27.818" width="1.545" height="1.545"></rect><rect x="9.847" y="17.772" width="4.371" height="1.547" transform="translate(-9.589 13.94) rotate(-45)"></rect><path d="M29.032,10.045a2.318,2.318,0,1,0-2.317-2.317A2.32,2.32,0,0,0,29.032,10.045Zm0-3.091a.773.773,0,1,1-.772.774A.775.775,0,0,1,29.032,6.954Z"></path><rect x="8.941" y="3.091" width="1.545" height="6.182"></rect><rect x="8.941" width="1.545" height="1.546"></rect><rect x="5.078" y="4.637" width="1.545" height="6.182"></rect><rect x="5.078" y="1.546" width="1.545" height="1.545"></rect></g></g></svg>