<svg height='300px' width='300px'  fill="#000000" xmlns="http://www.w3.org/2000/svg" xmlns:xlink="http://www.w3.org/1999/xlink" version="1.1" x="0px" y="0px" viewBox="0 0 239.271 304.54" style="enable-background:new 0 0 239.271 304.54;" xml:space="preserve"><g><path d="M46.192,125.148c10.454-4.545,15.705-16.069,12.68-26.741c-1.902,0.714-3.952,1.367-6.107,1.931   c-11.279,2.951-21.222,2.352-22.53-1.295c2.777,2.565,12.016,1.449,21.925-2.859c7.478-3.251,13.38-7.467,15.833-10.964   c1.12-1.596,1.522-3.043,1.028-4.18c-1.578-3.631-11.686-2.736-22.576,1.998c-0.373,0.162-0.731,0.332-1.096,0.498   c-5.329-2.066-11.442-2.116-17.099,0.343c-11.396,4.954-16.618,18.209-11.664,29.605C21.542,124.882,34.797,130.102,46.192,125.148   z"></path><path d="M33.142,180.505c-3.065,0-5.949-1.349-7.912-3.703L0.151,146.738c0.734,24.271,7.451,42.388,17.848,65.765   c0.432,0.973,0.984,1.841,1.615,2.601c0.708,1.426,1.698,2.741,2.972,3.853c8.727,7.617,19.504,21.47,19.642,29.989l-32.19,34.192   c-4.731,5.026-4.493,12.938,0.533,17.669c2.414,2.273,5.493,3.399,8.566,3.399c3.325,0,6.644-1.319,9.104-3.932l34.834-37   c1.375-1.46,2.378-3.231,2.925-5.161c3.422-12.08-0.983-24.394-7.182-34.577c14.103,6.539,20.009,15.658,21.711,18.812   l7.232,51.432c0.878,6.246,6.23,10.761,12.362,10.761c0.579,0,1.166-0.041,1.756-0.123c6.837-0.961,11.6-7.283,10.638-14.119   l-7.5-53.333c-0.136-0.968-0.385-1.917-0.742-2.827c-0.428-1.089-10.291-25.298-43.699-36.795   c-5.272-10.049-7.377-18.111-7.429-25.59l-15.419,7.674C36.31,180.132,34.724,180.505,33.142,180.505z"></path><path d="M60.413,172.799l2.218,4.453c0,0,2.227-5.005,6.464-13.438l-5.729,2.851C61.425,170.59,60.413,172.799,60.413,172.799z"></path><path d="M1.848,145.181l25.147,30.148c1.561,1.871,3.831,2.876,6.146,2.876c1.207,0,2.426-0.273,3.562-0.838l36.5-18.167   c3.956-1.969,5.566-6.771,3.598-10.727c-1.97-3.956-6.773-5.565-10.727-3.598l-30.841,15.35l-11.248-13.485l3.951,1.146l7.899,9.47   l29.214-14.541c1.439-0.717,2.981-1.08,4.582-1.08c3.938,0,7.474,2.188,9.228,5.712c0.056,0.112,0.099,0.229,0.15,0.343l2.036-1.84   c2.023,2.538,5.135,4.17,8.634,4.17c6.098,0,11.042-4.944,11.042-11.042c0-3.243-1.406-6.15-3.632-8.17   c1.274-2.238,1.396-4.976,0.311-7.317c38.058-68.275,91.897-109.94,103.571-118.475c-3.276,12.218-14.979,60.802,0.473,79.779   c4.591,5.639,11.196,8.153,19.609,7.471c7.792-0.628,12.838,1.066,14.973,5.045c8.556,15.951-28.135,62.867-28.507,63.339   c-0.014,0.018-0.017,0.04-0.03,0.059c-2.027,0.447-8.016,12.039-8.113,13.327c0,0-6.92,2.787-9.198,5.395   c4-0.119,6.265,2.289,6.265,2.289s-2.137,6.509-2.477,9.777c-0.34,3.267-6.62,0.137-10.314,6.599   c4.573,0.12,8.065,0.98,8.701,1.704l-0.133,15.444c0,0-0.156,2.778-0.784,4.732c-0.626,1.954-11.839,5.513-10.648,11.644   c3.698-3.324,7.575-4.281,10.622-2.973c3.709,1.592,6.212,7.205,7.247,10.673c3.259-9.585-0.984-12.891-0.157-15.092   c2.458-6.539,8.06-16.533,9.625-17.424c1.566-0.892,6.359-3.962,10.875,0.012c-0.4-10.448-4.742-11.177-4.564-15.494   c0.155-3.831,0.077-17.644-1.995-21.784c-1.481-2.959-2.357-5.983-3.388-7.624c0.011-0.012,0.027-0.017,0.037-0.029   c1.55-1.969,37.866-48.425,28.697-65.521c-2.544-4.745-8.228-6.795-16.897-6.094c-7.723,0.626-13.746-1.643-17.896-6.739   c-16.7-20.511,0.482-80.096,0.658-80.695c0.118-0.405-0.03-0.841-0.371-1.09c-0.342-0.248-0.802-0.255-1.151-0.019   c-0.09,0.061-1.352,0.932-3.558,2.572l-1.436-1.915c0.579-0.393,1.155-0.795,1.737-1.181L198.361,0   C151.847,29.71,114.23,80.206,90.096,118.964c-1.898,0.009-3.801,0.682-5.321,2.055l-22.944,20.73l-5.629-5.457   c-1.589-1.54-3.652-2.288-5.703-2.254c-0.067-0.006-0.137-0.021-0.203-0.024c-12.556-0.449-28.076-1.765-40.633-2.213   c-1.177-0.052-2.446,0.125-3.666,0.516c-1.115,0.286-2.187,0.81-3.129,1.596c-0.258,0.215-0.493,0.447-0.717,0.685   c-0.854,0.863-1.503,1.924-1.828,3.183c-0.193,0.653-0.295,1.328-0.318,2.006C-0.06,141.684,0.537,143.609,1.848,145.181z    M209.862,170.826c-0.233,1.003-1.237,1.628-2.24,1.395c-1.003-0.233-1.627-1.235-1.394-2.238c0.233-1.003,1.234-1.629,2.237-1.396   C209.468,168.82,210.095,169.823,209.862,170.826z M106.116,105.08l-2.083-1.676c9.155-13.903,19.674-28.543,31.394-42.764   l2.225,1.79C127.074,74.873,116.262,89.124,106.116,105.08z M195.343,3.709l1.497,1.997c-10.062,7.636-33.16,26.424-57.781,55.075   l-2.255-1.814C153.957,38.371,173.633,18.766,195.343,3.709z M102.84,105.225l2.109,1.697c-2.998,4.778-5.934,9.706-8.784,14.782   c-0.032-0.036-0.058-0.075-0.091-0.111c-0.708-0.784-1.538-1.39-2.432-1.825C96.525,115.058,99.596,110.192,102.84,105.225z"></path></g></svg>