<svg height='300px' width='300px'  fill="#fff" xmlns="http://www.w3.org/2000/svg" xmlns:xlink="http://www.w3.org/1999/xlink" xml:space="preserve" version="1.1" style="shape-rendering:geometricPrecision;text-rendering:geometricPrecision;image-rendering:optimizeQuality;" viewBox="0 0 327 172" x="0px" y="0px" fill-rule="evenodd" clip-rule="evenodd"><defs><style type="text/css">
   
    .fil0 {fill:#fff}
   
  </style></defs><g><path class="fil0" d="M327 17c-7,39 -36,65 -74,81 -7,3 -22,55 -56,60 -6,1 21,-48 14,-47 -42,10 -89,9 -130,2 -16,-3 -39,55 -50,58 -5,2 4,-46 -2,-49 0,-8 -34,-45 -28,-47 10,-3 65,32 73,21 15,-21 63,-54 89,-70 6,-4 -56,-14 -50,-17 34,-14 74,3 77,2 11,-4 25,-8 42,-10 -1,6 2,41 22,58 -18,-33 -17,-59 -14,-59 26,-1 62,3 87,17zm-57 -4c4,0 8,3 8,7 0,5 -4,8 -8,8 -4,0 -8,-3 -8,-8 0,-4 4,-7 8,-7z"></path></g></svg>