<?xml version="1.0" standalone="no"?>
<!DOCTYPE svg PUBLIC "-//W3C//DTD SVG 20010904//EN"
 "http://www.w3.org/TR/2001/REC-SVG-20010904/DTD/svg10.dtd">
<svg version="1.0" xmlns="http://www.w3.org/2000/svg"
 width="140.000000pt" height="161.000000pt" viewBox="0 0 140.000000 161.000000"
 preserveAspectRatio="xMidYMid meet">
<metadata>
Created by gokul
</metadata>
<g transform="translate(0.000000,161.000000) scale(0.100000,-0.100000)"
fill="#fff" stroke="none">
<path d="M940 1568 c-26 -48 -107 -172 -169 -262 -48 -68 -54 -122 -21 -194
43 -94 135 -147 244 -140 79 5 123 35 174 118 25 43 32 65 32 108 0 50 -4 60
-59 135 -57 79 -161 253 -161 269 0 20 -18 4 -40 -34z"/>
<path d="M385 959 c-71 -17 -186 -81 -240 -133 -97 -95 -150 -249 -143 -417 3
-87 7 -103 41 -172 62 -126 139 -179 317 -221 77 -19 340 -21 488 -6 124 14
291 54 361 88 114 56 180 158 189 293 8 125 -56 206 -208 259 -117 41 -149 61
-250 154 -97 89 -175 132 -276 151 -84 17 -217 18 -279 4z m278 -125 c71 -16
78 -20 168 -102 132 -119 141 -125 259 -171 123 -48 193 -100 193 -145 0 -38
-62 -99 -138 -137 -133 -65 -422 -99 -672 -80 -131 10 -155 15 -210 42 -75 36
-118 85 -139 157 -24 82 -3 194 52 273 34 49 167 144 229 162 66 21 167 21
258 1z"/>
<path d="M495 803 c-148 -19 -256 -109 -290 -239 -39 -150 5 -242 137 -282 83
-26 255 -46 318 -38 140 19 209 100 210 247 0 101 -21 169 -69 219 -59 63
-105 55 -161 -27 -18 -27 -29 -39 -25 -28 4 11 10 40 12 65 4 35 1 49 -13 61
-21 18 -74 28 -119 22z"/>
<path d="M983 522 c-38 -24 -57 -156 -27 -186 19 -20 44 -20 119 0 87 22 105
36 105 84 0 47 -28 73 -103 95 -57 17 -76 18 -94 7z"/>
</g>
</svg>
