<svg height='300px' width='300px'  fill="#000" xmlns:dc="http://purl.org/dc/elements/1.1/" xmlns:cc="http://creativecommons.org/ns#" xmlns:rdf="http://www.w3.org/1999/02/22-rdf-syntax-ns#" xmlns:svg="http://www.w3.org/2000/svg" xmlns="http://www.w3.org/2000/svg" xmlns:inkscape="http://www.inkscape.org/namespaces/inkscape" version="1.1" x="0px" y="0px" viewBox="0 0 100 100"><g transform="translate(0,-952.36218)"><path style="color:#000;enable-background:accumulate;" d="m 14.999998,959.36219 c -1,0 -1,3 -1,3 0,0 -2.584599,-1.4008 -3,-1 -0.4461,0.4304 1,3 1,3 0,0 -1.6837,0.6836 -1.9999995,1 -0.70721,0.7072 1.1930705,1.9808 1.9843795,3 1.63927,-2.4057 5.058401,-4.1731 10.42187,-4.4375 0.52502,-0.6441 1.30425,-1.852 0.59375,-2.5625 -1,-1 -3,1 -3,1 0,0 0,-3 -1,-3 -1,0 -2,2 -2,2 -1,0 -1,-2 -2,-2 z m 8.46875,5.5312 c -4.46082,-0.4798 -9.463629,1.4706 -11.46875,4.4688 -0.694599,0.6946 -2.0106995,1.3002 -2.9999995,3 -0.435,0.7475 -1,3 -1,3 2,-1 3.9999995,-2 4.9999995,-2 -1,2 -2,4 -1,5 1,1 2,-0.6667 3,-1 0,4 -3,9 -3,12 0,8 6,26.00001 18,30.00001 6,3 9.000004,12 13.000004,12 8,0 18,-2 21.999999,-5 5,-4 9,-13 9,-17 1.6667,-0.6667 3,0 5,-2 2,-2 1.333301,-3.3334 2,-5 1,0 3,-2 4,-3.00001 1,-1 0,-4 1,-5 1,-1 3,-2 3,-3 0,-2 -1,-4 -1,-4 0,0 3,-2 3,-4 0,-2 -2.0585,-4.1308 -1,-5 0,0 2,-1 2,-4 0,-1 -3,-2 -3,-2 0,0 1,-2 1,-3 -1,-1 -4,-1 -4,-1 0,0 1,-3 -1,-3 -5,0 -12,13 -20,16 -4.999999,2 -19.999999,4 -24.999999,1 -6.493613,-8.3489 -10.411163,-14.9568 -16.531253,-17.4688 z m -3.96875,3.4688 c 0.82843,0 1.5,0.4477 1.5,1 0,0.5523 -0.67157,1 -1.5,1 -0.82843,0 -1.5,-0.4477 -1.5,-1 0,-0.5523 0.67157,-1 1.5,-1 z m 33.218754,63.15621 c -0.98176,0.1625 -1.971721,0.2894 -2.96875,0.4063 -0.345961,2.3198 -1.02859,6.4375 -1.75,6.4375 -0.357241,0 -1.961821,0.5621 -3.75,1.2188 l 2.46875,-7.375 c -1.266171,0.086 -2.511121,0.1562 -3.71875,0.1562 l -0.21875,0 c -0.506501,2.1625 -1.9589,8 -2.78125,8 -1,0 -11.000003,4 -11.000003,4 l 7,-1.0128 -4,2 c 1,0 7.333303,-0.9872 11.000003,-1.9872 l 5,2 -2.65625,-3.3125 c 0.70411,-0.1685 1.596469,-0.3873 2.65625,-0.6875 l 7,1 -4,-4 z" fill="#000" stroke="none" marker="none" visibility="visible" display="inline" overflow="visible"></path></g></svg>