<?xml version="1.0" standalone="no"?>
<!DOCTYPE svg PUBLIC "-//W3C//DTD SVG 20010904//EN"
 "http://www.w3.org/TR/2001/REC-SVG-20010904/DTD/svg10.dtd">
<svg version="1.0" xmlns="http://www.w3.org/2000/svg"
 width="181.000000pt" height="86.000000pt" viewBox="0 0 181.000000 86.000000"
 preserveAspectRatio="xMidYMid meet">
<metadata>
Created by potrace 1.16, written by Peter Selinger 2001-2019
</metadata>
<g transform="translate(0.000000,86.000000) scale(0.100000,-0.100000)"
fill="#000" stroke="none">
<path d="M1506 703 c-4 -5 -14 -22 -21 -40 -17 -40 -48 -49 -97 -28 -62 25
-156 20 -221 -13 -34 -18 -61 -25 -69 -20 -7 4 -21 8 -32 8 -17 0 -17 -2 -4
-22 13 -20 12 -26 -16 -72 -26 -42 -32 -61 -34 -126 -3 -54 0 -81 10 -91 7 -8
20 -28 28 -44 9 -18 34 -39 64 -54 43 -21 63 -25 146 -24 53 0 124 8 159 17
34 9 72 16 83 16 32 0 76 31 93 66 8 17 21 62 29 99 8 37 21 74 30 83 9 9 37
19 63 22 52 6 67 27 40 58 -8 9 -17 26 -19 37 -2 13 -12 21 -31 23 -21 3 -31
-3 -44 -26 -10 -17 -29 -37 -43 -45 -24 -15 -27 -14 -63 19 -43 40 -44 44 -16
44 29 0 59 18 59 36 0 17 -61 84 -77 84 -5 0 -13 -3 -17 -7z m-201 -93 c-55
-8 -115 -34 -115 -50 0 -13 0 -13 55 11 39 17 61 20 114 16 86 -7 135 -22 168
-52 l28 -24 -35 -1 c-52 -1 -117 -34 -139 -71 -25 -42 -17 -52 12 -16 30 37
85 57 154 57 69 0 119 26 135 70 10 30 31 39 43 20 3 -6 -1 -13 -9 -16 -24 -9
-19 -24 8 -24 14 0 28 -4 31 -10 6 -11 -4 -13 -45 -11 -14 1 -39 -7 -57 -18
-25 -16 -36 -32 -48 -78 -40 -143 -57 -168 -127 -179 -45 -8 -93 31 -110 89
-11 40 -12 41 -16 13 -5 -37 14 -82 46 -106 l25 -20 -34 0 c-19 0 -45 -3 -59
-7 l-25 -6 23 26 c17 18 22 32 17 47 -6 20 -49 45 -64 36 -3 -3 -16 3 -28 12
-20 15 -21 22 -13 56 4 21 7 44 5 50 -2 6 -6 23 -9 38 -8 36 -63 98 -87 98
-24 0 -24 -2 1 -50 28 -54 26 -70 -17 -131 -20 -30 -40 -70 -43 -89 l-7 -35
-16 37 c-14 32 -15 42 -3 81 7 24 25 61 39 82 15 22 24 41 21 44 -11 11 -65
-64 -79 -109 l-14 -45 0 40 c-2 122 127 236 264 234 l60 -1 -50 -8z m-109
-132 c12 -23 15 -45 10 -82 -3 -28 -7 -62 -8 -76 -2 -20 1 -25 19 -25 11 0 25
-3 29 -7 4 -5 19 -8 34 -8 42 0 52 -18 27 -51 -26 -36 -54 -37 -69 -4 -12 28
-36 37 -83 33 -43 -4 -45 30 -7 92 40 64 45 83 33 125 -12 43 -7 45 15 3z"/>
<path d="M503 670 c-47 -10 -94 -32 -112 -53 -9 -12 -19 -13 -48 -5 -101 28
-193 -39 -193 -140 0 -28 -5 -45 -15 -48 -8 -3 -24 -22 -36 -41 -56 -91 17
-213 129 -213 41 0 112 27 147 55 43 35 24 41 -36 11 -63 -31 -122 -34 -165
-7 -102 62 -38 191 94 191 29 0 68 -6 87 -14 34 -15 35 -16 29 -59 -5 -34 -2
-53 12 -76 10 -17 22 -31 26 -31 4 0 18 -10 32 -23 48 -45 168 -62 224 -33 93
49 110 170 34 239 -19 17 -19 21 -5 55 49 116 -61 220 -204 192z m104 -49 c47
-22 63 -45 63 -92 0 -51 -24 -69 -90 -69 -43 0 -71 -7 -114 -28 -44 -23 -58
-26 -67 -16 -17 20 -98 44 -151 44 -44 0 -48 2 -48 24 0 36 45 84 85 92 51 9
103 -13 158 -68 27 -27 51 -47 54 -45 8 9 -25 62 -57 94 -18 17 -29 36 -26 42
8 13 91 39 126 40 14 0 44 -8 67 -18z m54 -224 c19 -12 40 -35 47 -51 19 -39
-2 -93 -48 -124 -29 -20 -44 -23 -90 -19 -103 9 -172 67 -156 130 18 73 174
113 247 64z"/>
</g>
</svg>
