<svg height='300px' width='300px'  fill="#000" xmlns="http://www.w3.org/2000/svg" xmlns:xlink="http://www.w3.org/1999/xlink" version="1.1" x="0px" y="0px" viewBox="0 0 68 68" enable-background="new 0 0 68 68" xml:space="preserve"><g><path d="M32.5,22.7c-0.7,1.1,1,2.2,1.7,1.1c1.6-2.4-0.5-6.8-1-7.7c-3.2-6,0-12.6,0-12.6c0.2-0.5,0-1.1-0.5-1.3s-1.1,0-1.3,0.4   c-0.2,0.3-3.7,7.5,0,14.5C32.3,18.7,33.2,21.6,32.5,22.7z"></path><path d="M36.2,18.7c-0.6,1.2,1.1,2.1,1.8,1c1-1.8-0.7-4.7-1.1-5.3c-2.3-3.6-0.7-7.9-0.7-7.9c0.2-0.5,0-1.1-0.6-1.3   c-0.5-0.2-1.1,0-1.3,0.6c-0.1,0.2-2.1,5.3,0.8,9.7C35.9,16.6,36.5,18.3,36.2,18.7z"></path><path d="M35.1,41.2c6.4-0.1,12.3-0.6,17.1-1.5c2.5-2.2,4.7-5,6.6-8c0.3-0.5,0.5-1.1,0.5-1.5c0.1-0.1,0-0.7-0.1-1.2   c-0.5-1.6-1.8-2.2-3.4-2.8c3.9-2.6,3.9-7,1.8-8.9c-2.5-2.3-6.6,0.1-5.8,3.4c0,0.1,0.2,0.9,0.5,1.3c1.8,2.6,3.4-0.2,1.9-0.8   c-0.2-0.2-0.3-0.4-0.4-0.9c-0.2-0.8,0-1.3,1.2-1.8c2-0.9,4.1,4.4-1.3,6.7c-0.8-0.8-1.5-2.2-3.4-2.2c-1.2,0-2.3,0.7-2.8,1.7   l-0.2,0.3L44,30.6l-0.6,1C40.7,37.2,37.1,40,35.1,41.2z"></path><path d="M61.3,30.1c0,0.7-0.2,1.4-0.5,2c2.9,1.2,4.4,2.5,4.2,3.7c-1,6.5-27.6,7.5-34.2,7.3c-6.3-0.2-27-1.8-27.9-7.3   c-0.2-1.1,1.3-2.4,4-3.6c-0.2-0.7-0.4-1.3-0.6-1.9c-3.9,1.7-5.7,3.6-5.4,5.8c0.7,4.2-0.2,11.1,7.4,19.3C14.7,62.1,24,66,34,66   c20.2,0,33.4-14.9,32.6-28.6C68.4,34,64.8,31.6,61.3,30.1z"></path><path d="M26.1,28.4c5.6-0.4,11.5-0.3,16.7,0.1l1.1-1.9c-6.3-0.5-13.1-0.5-18.8-0.1C25.6,27.2,25.9,27.7,26.1,28.4z"></path><path d="M19.2,39.6c0.7,0,1.5-0.1,2.2-0.2c-1.6-4.2-4.7-10.1-7.1-10.7c-0.5-0.1-0.9-0.7-0.8-1.2c0.1-0.5,0.7-0.9,1.2-0.8   c3.8,0.9,7.2,8.7,8.4,11.7c4.3-7.9,1.2-15.9-14.7-16.3c-0.6,0-1,0.4-1,1c0,0.4-0.3,8.8,4.3,13.4C13.7,38.6,16.2,39.6,19.2,39.6z"></path></g></svg>